<svg id="close" viewBox="0 0 32 32" fill="none" xmlns="http://www.w3.org/2000/svg">
    <path d="M13.7906 16L0.83127 3.04377C0.685995 2.8985 0.570758 2.72603 0.492135 2.53622C0.413513 2.34641 0.373047 2.14297 0.373047 1.93752C0.373047 1.73207 0.413513 1.52863 0.492135 1.33882C0.570758 1.14901 0.685995 0.976545 0.83127 0.83127C0.976545 0.685995 1.14901 0.570758 1.33882 0.492135C1.52863 0.413513 1.73207 0.373047 1.93752 0.373047C2.14297 0.373047 2.34641 0.413513 2.53622 0.492135C2.72603 0.570758 2.8985 0.685995 3.04377 0.83127L16 13.7906L28.9563 0.83127C29.2497 0.537875 29.6476 0.373047 30.0625 0.373047C30.4774 0.373047 30.8754 0.537875 31.1688 0.83127C31.4622 1.12467 31.627 1.5226 31.627 1.93752C31.627 2.35244 31.4622 2.75038 31.1688 3.04377L18.2094 16L31.1688 28.9563C31.4622 29.2497 31.627 29.6476 31.627 30.0625C31.627 30.4774 31.4622 30.8754 31.1688 31.1688C30.8754 31.4622 30.4774 31.627 30.0625 31.627C29.6476 31.627 29.2497 31.4622 28.9563 31.1688L16 18.2094L3.04377 31.1688C2.75038 31.4622 2.35244 31.627 1.93752 31.627C1.5226 31.627 1.12467 31.4622 0.83127 31.1688C0.537875 30.8754 0.373047 30.4774 0.373047 30.0625C0.373047 29.6476 0.537875 29.2497 0.83127 28.9563L13.7906 16Z" fill="#504C4B"/>
</svg>